<svg xmlns="http://www.w3.org/2000/svg" viewBox="0 0 64 64" role="img" aria-label="Cycling Zone">
  <title>Cycling Zone stacked mark</title>
  <rect width="64" height="64" rx="7" fill="#e8c547"/>
  <g fill="#0e0f15">
    <path transform="translate(5.174 32.000) scale(0.018000 -0.018000)" d="M34 162V538Q34 620 75.5 665.0Q117 710 196 710Q275 710 316.5 665.0Q358 620 358 538V464H254V545Q254 610 199 610Q144 610 144 545V154Q144 90 199 90Q254 90 254 154V261H358V162Q358 80 316.5 35.0Q275 -10 196 -10Q117 -10 75.5 35.0Q34 80 34 162Z"/>
    <path transform="translate(13.268 32.000) scale(0.018000 -0.018000)" d="M142 298 9 700H126L201 443H203L278 700H385L252 298V0H142Z"/>
    <path transform="translate(21.560 32.000) scale(0.018000 -0.018000)" d="M34 162V538Q34 620 75.5 665.0Q117 710 196 710Q275 710 316.5 665.0Q358 620 358 538V464H254V545Q254 610 199 610Q144 610 144 545V154Q144 90 199 90Q254 90 254 154V261H358V162Q358 80 316.5 35.0Q275 -10 196 -10Q117 -10 75.5 35.0Q34 80 34 162Z"/>
    <path transform="translate(29.654 32.000) scale(0.018000 -0.018000)" d="M41 700H151V100H332V0H41Z"/>
    <path transform="translate(37.046 32.000) scale(0.018000 -0.018000)" d="M41 700H151V0H41Z"/>
    <path transform="translate(41.702 32.000) scale(0.018000 -0.018000)" d="M41 700H179L286 281H288V700H386V0H273L141 511H139V0H41Z"/>
    <path transform="translate(50.588 32.000) scale(0.018000 -0.018000)" d="M33 166V534Q33 619 75.0 664.5Q117 710 197 710Q277 710 319.0 664.5Q361 619 361 534V474H257V541Q257 610 200 610Q143 610 143 541V158Q143 90 200 90Q257 90 257 158V295H202V395H361V166Q361 81 319.0 35.5Q277 -10 197 -10Q117 -10 75.0 35.5Q33 81 33 166Z"/>
  </g>
  <line x1="14" y1="38" x2="50" y2="38" stroke="#0e0f15" stroke-width="1"/>
  <g fill="#0e0f15">
    <path transform="translate(13.032 54.000) scale(0.018000 -0.018000)" d="M19 98 223 600H29V700H341V602L137 100H341V0H19Z"/>
    <path transform="translate(22.048 54.000) scale(0.018000 -0.018000)" d="M33 166V534Q33 618 76.0 664.0Q119 710 200 710Q281 710 324.0 664.0Q367 618 367 534V166Q367 82 324.0 36.0Q281 -10 200 -10Q119 -10 76.0 36.0Q33 82 33 166ZM257 159V541Q257 610 200 610Q143 610 143 541V159Q143 90 200 90Q257 90 257 159Z"/>
    <path transform="translate(31.748 54.000) scale(0.018000 -0.018000)" d="M41 700H179L286 281H288V700H386V0H273L141 511H139V0H41Z"/>
    <path transform="translate(41.934 54.000) scale(0.018000 -0.018000)" d="M41 700H341V600H151V415H302V315H151V100H341V0H41Z"/>
  </g>
</svg>
