<svg xmlns="http://www.w3.org/2000/svg" viewBox="0 0 32 32" role="img" aria-label="Cycling Zone">
  <title>Cycling Zone monogram</title>
  <rect width="32" height="32" rx="5" fill="#e8c547"/>
  <g fill="#0e0f15">
    <path transform="translate(4.992 22.000) scale(0.007812 -0.007812)" d="M784 -20Q580 -20 417.5 68.0Q255 156 160.5 326.5Q66 497 66 744Q66 993 162.0 1164.0Q258 1335 421.0 1422.5Q584 1510 784 1510Q925 1510 1044.0 1471.5Q1163 1433 1252.5 1358.5Q1342 1284 1396.0 1176.5Q1450 1069 1462 930H1052Q1048 981 1029.5 1023.0Q1011 1065 978.5 1095.0Q946 1125 900.5 1141.5Q855 1158 796 1158Q695 1158 624.5 1108.5Q554 1059 518.0 966.5Q482 874 482 744Q482 608 519.0 516.0Q556 424 625.5 378.0Q695 332 794 332Q850 332 894.0 346.0Q938 360 971.0 387.0Q1004 414 1024.5 452.0Q1045 490 1052 538H1462Q1455 443 1409.5 344.5Q1364 246 1279.5 163.5Q1195 81 1071.5 30.5Q948 -20 784 -20Z"/>
    <path transform="translate(16.594 22.000) scale(0.007812 -0.007812)" d="M78 0V224L782 1164H80V1490H1296V1266L592 326H1294V0Z"/>
  </g>
</svg>
