<svg xmlns="http://www.w3.org/2000/svg" viewBox="0 0 480 140" role="img" aria-label="Cycling Zone">
  <title>Cycling Zone wordmark (inverse / on yellow)</title>
  <rect width="480" height="140" fill="#e8c547"/>
  <g fill="#0e0f15">
    <path transform="translate(96.994 68.000) scale(0.062000 -0.062000)" d="M34 162V538Q34 620 75.5 665.0Q117 710 196 710Q275 710 316.5 665.0Q358 620 358 538V464H254V545Q254 610 199 610Q144 610 144 545V154Q144 90 199 90Q254 90 254 154V261H358V162Q358 80 316.5 35.0Q275 -10 196 -10Q117 -10 75.5 35.0Q34 80 34 162Z"/>
    <path transform="translate(122.740 68.000) scale(0.062000 -0.062000)" d="M142 298 9 700H126L201 443H203L278 700H385L252 298V0H142Z"/>
    <path transform="translate(149.168 68.000) scale(0.062000 -0.062000)" d="M34 162V538Q34 620 75.5 665.0Q117 710 196 710Q275 710 316.5 665.0Q358 620 358 538V464H254V545Q254 610 199 610Q144 610 144 545V154Q144 90 199 90Q254 90 254 154V261H358V162Q358 80 316.5 35.0Q275 -10 196 -10Q117 -10 75.5 35.0Q34 80 34 162Z"/>
    <path transform="translate(174.914 68.000) scale(0.062000 -0.062000)" d="M41 700H151V100H332V0H41Z"/>
    <path transform="translate(198.242 68.000) scale(0.062000 -0.062000)" d="M41 700H151V0H41Z"/>
    <path transform="translate(212.146 68.000) scale(0.062000 -0.062000)" d="M41 700H179L286 281H288V700H386V0H273L141 511H139V0H41Z"/>
    <path transform="translate(240.620 68.000) scale(0.062000 -0.062000)" d="M33 166V534Q33 619 75.0 664.5Q117 710 197 710Q277 710 319.0 664.5Q361 619 361 534V474H257V541Q257 610 200 610Q143 610 143 541V158Q143 90 200 90Q257 90 257 158V295H202V395H361V166Q361 81 319.0 35.5Q277 -10 197 -10Q117 -10 75.0 35.5Q33 81 33 166Z"/>
    <path transform="translate(278.782 68.000) scale(0.062000 -0.062000)" d="M19 98 223 600H29V700H341V602L137 100H341V0H19Z"/>
    <path transform="translate(303.226 68.000) scale(0.062000 -0.062000)" d="M33 166V534Q33 618 76.0 664.0Q119 710 200 710Q281 710 324.0 664.0Q367 618 367 534V166Q367 82 324.0 36.0Q281 -10 200 -10Q119 -10 76.0 36.0Q33 82 33 166ZM257 159V541Q257 610 200 610Q143 610 143 541V159Q143 90 200 90Q257 90 257 159Z"/>
    <path transform="translate(330.026 68.000) scale(0.062000 -0.062000)" d="M41 700H179L286 281H288V700H386V0H273L141 511H139V0H41Z"/>
    <path transform="translate(358.500 68.000) scale(0.062000 -0.062000)" d="M41 700H341V600H151V415H302V315H151V100H341V0H41Z"/>
  </g>
  <line x1="60" y1="90" x2="420" y2="90" stroke="#0e0f15" stroke-width="1.8"/>
  <line x1="218" y1="104" x2="262" y2="104" stroke="#0e0f15" stroke-width="2.8" stroke-linecap="round"/>
</svg>
